PathFileType	4	(X/Y/Z)	C:\Users\Basilio\Documents\Thesis Gigler\squatting_fais\c3dfiles\054\SLS_front_pre2\markers_experimental.trc
DataRate	CameraRate	NumFrames	NumMarkers	Units	OrigDataRate	OrigDataStartFrame	OrigNumFrames
200.000000	200.000000	4	61	mm	200.000000	1278	1461
Frame#	Time	FHD			LBHD			RBHD			C7			T10			CLAV			LSHO			LUUPA			LMUPA			LDUPA			LLEP			LMEP			LRAD			LUL			LRFIN			RSHO			RUPA1			RMUPA			RDUPA			RLEP			RMEP			RRAD			RUL			RUFIN			LASI			RASI			USACR			LSACR			RSACR			LTHI1			LTHI2			LTHI3			LTHI4			LLFC			LMFC			LTIB1			LTIB2			LTIB3			LTIB4			LLMAL			LMMAL			LHEE			LMT1			LMT2			LMT5			RTHI			RTHI2			RTHI3			RTHI4			RLFC			RMFC			RTIB1			RTIB2			RTIB3			RTIB4			RLMAL			RMMAL			RHEE			RMT1			RMT2			RMT5			
		X1	Y1	Z1	X2	Y2	Z2	X3	Y3	Z3	X4	Y4	Z4	X5	Y5	Z5	X6	Y6	Z6	X7	Y7	Z7	X8	Y8	Z8	X9	Y9	Z9	X10	Y10	Z10	X11	Y11	Z11	X12	Y12	Z12	X13	Y13	Z13	X14	Y14	Z14	X15	Y15	Z15	X16	Y16	Z16	X17	Y17	Z17	X18	Y18	Z18	X19	Y19	Z19	X20	Y20	Z20	X21	Y21	Z21	X22	Y22	Z22	X23	Y23	Z23	X24	Y24	Z24	X25	Y25	Z25	X26	Y26	Z26	X27	Y27	Z27	X28	Y28	Z28	X29	Y29	Z29	X30	Y30	Z30	X31	Y31	Z31	X32	Y32	Z32	X33	Y33	Z33	X34	Y34	Z34	X35	Y35	Z35	X36	Y36	Z36	X37	Y37	Z37	X38	Y38	Z38	X39	Y39	Z39	X40	Y40	Z40	X41	Y41	Z41	X42	Y42	Z42	X43	Y43	Z43	X44	Y44	Z44	X45	Y45	Z45	X46	Y46	Z46	X47	Y47	Z47	X48	Y48	Z48	X49	Y49	Z49	X50	Y50	Z50	X51	Y51	Z51	X52	Y52	Z52	X53	Y53	Z53	X54	Y54	Z54	X55	Y55	Z55	X56	Y56	Z56	X57	Y57	Z57	X58	Y58	Z58	X59	Y59	Z59	X60	Y60	Z60	X61	Y61	Z61	

1279	6.390000000000001	-158.9721984863282	1789.850830078125	-967.9583129882815	-310.2495422363282	1750.442504882813	-1064.969970703125	-350.7527160644532	1752.140991210938	-930.2639160156252	-378.2722473144532	1573.505249023438	-981.8543701171877	-401.2115783691407	1243.151123046875	-977.4310302734377	-232.7698822021485	1520.890991210938	-980.949645996094	-296.0242919921876	1560.0830078125	-1143.330932617188	-206.4194030761719	1377.281494140625	-1273.826538085938	-160.3626098632813	1392.619995117188	-1264.479736328125	-149.7723236083985	1340.023071289063	-1290.311279296875	-94.36822509765626	1315.5263671875	-1289.841918945313	-119.2014312744141	1257.042602539063	-1239.045776367188	142.9386138916016	1277.283203125	-1168.624755859375	154.5403747558594	1226.657958984375	-1226.765869140625	235.9065399169922	1270.912475585938	-1178.283569335938	-300.6222229003907	1565.290161132813	-824.6955566406252	-228.6838531494141	1394.458862304688	-668.2944946289064	-181.931884765625	1407.283081054688	-668.2355346679689	-178.8873443603516	1353.630981445313	-639.5153198242189	-139.7408294677735	1329.53515625	-627.9740600585939	-148.0382995605469	1274.292236328125	-685.2505493164064	131.7074279785157	1343.789916992188	-719.9237060546876	127.3224029541016	1296.743530273438	-654.8796997070314	211.5500183105469	1354.981811523438	-700.2940673828126	-210.1977081298829	1063.913940429688	-1079.170166015625	-225.1642303466797	1087.453979492188	-827.2239990234377	-403.5317993164064	1154.888671875	-971.210144042969	-406.5602111816407	1121.543823242188	-997.1529541015627	-411.4839782714845	1124.176391601563	-940.332214355469	-301.8510437011719	823.5274047851565	-1156.340576171875	-272.9382324218751	743.4281005859376	-1151.315307617188	-225.4195404052735	745.5635375976564	-1143.279663085938	-303.9965515136719	692.2960815429689	-1134.639526367188	-308.0671386718751	538.5310058593751	-1112.280639648438	-287.2769165039063	534.6364135742189	-974.2380371093752	-266.0398559570313	376.6253967285157	-1056.431884765625	-310.8951416015626	328.7577819824219	-1115.785522460938	-273.6493835449219	327.4929504394532	-1088.922241210938	-281.1816101074219	250.3960266113282	-1054.604370117188	-339.5752563476563	113.9843292236328	-1095.309448242188	-310.0249328613282	132.541488647461	-1003.918029785156	-408.5390014648439	104.7548141479492	-1037.813354492188	-197.9815979003907	55.18682861328126	-1016.990051269531	-189.3282623291016	55.20211029052736	-1066.345336914063	-242.1638793945313	40.7738151550293	-1117.703979492188	-290.8502807617188	786.6907958984377	-719.0331420898439	-249.6388549804688	735.5759277343751	-709.3435058593751	-215.8912658691407	738.1652221679689	-713.2354736328126	-269.7163085937501	654.6657104492189	-718.2009887695314	-275.2688598632813	567.8877563476564	-708.0316772460939	-218.4181518554688	553.1977539062501	-835.2222900390627	-235.063705444336	453.3543395996095	-701.3509521484376	-319.2061462402344	396.8511962890626	-665.5679321289064	-275.5663757324219	381.6070861816407	-672.1239013671876	-268.8641357421876	327.3420104980469	-691.5039062500001	-360.6180114746094	166.7090301513672	-657.2645874023439	-314.4033813476563	166.6873321533203	-741.4336547851564	-424.1376953125001	152.3052978515625	-717.5539550781251	-221.5568084716797	57.78096389770509	-714.2996215820314	-219.4521789550782	63.06787490844728	-667.4819946289064	-275.0264587402344	62.40002059936525	-621.8305053710939	
1280	6.395	-158.027084350586	1789.291259765625	-966.6077270507815	-309.3731994628907	1750.284545898438	-1063.534057617188	-349.9756469726563	1752.090454101563	-928.656921386719	-377.5700073242188	1573.43310546875	-980.201599121094	-400.6292724609376	1242.985229492188	-975.600036621094	-232.1031951904297	1520.587890625	-979.3115844726565	-295.5904541015626	1559.609985351563	-1141.976440429688	-208.1197509765626	1375.163696289063	-1272.485229492188	-161.5316314697266	1389.988891601563	-1263.23974609375	-151.6366577148438	1336.869750976563	-1288.940551757813	-96.74402618408206	1311.853515625	-1288.553100585938	-122.8785476684571	1253.850463867188	-1238.08154296875	139.8700103759766	1270.219360351563	-1167.381225585938	150.4341125488282	1219.20361328125	-1225.340576171875	232.3148651123047	1262.10302734375	-1176.011840820313	-299.8916625976563	1565.067138671875	-822.756774902344	-229.8491363525391	1392.765380859375	-666.4418945312501	-182.9263610839844	1405.121948242188	-666.3875732421876	-180.5597686767578	1351.516357421875	-637.5402832031251	-141.8963623046875	1326.810546875	-625.5681152343751	-150.8250885009766	1271.815673828125	-683.5233764648439	129.6845245361328	1337.918579101563	-718.2714843750001	124.9181289672852	1290.876953125	-653.1956176757814	209.7962799072266	1348.22802734375	-698.7567138671876	-209.8149566650391	1063.86865234375	-1077.877197265625	-224.7193603515626	1086.755859375	-825.456237792969	-403.2019042968751	1154.82421875	-969.4863891601565	-406.8316955566407	1121.703979492188	-995.3684082031252	-410.7582092285157	1124.026489257813	-938.7336425781252	-301.3367004394532	823.5791625976565	-1155.3837890625	-272.7298889160157	743.5219116210939	-1150.4375	-225.2658081054688	745.6729125976564	-1142.3203125	-303.7486877441407	692.3183593750001	-1133.856811523438	-307.8922119140626	538.5912475585939	-1111.553100585938	-287.2870178222657	534.5040893554689	-973.4299316406252	-265.9830627441407	376.7106933593751	-1055.911987304688	-310.9179687500001	328.9089660644532	-1115.401733398438	-273.7186889648438	327.6641540527344	-1088.405517578125	-280.6812438964844	250.4401397705079	-1054.173095703125	-339.5776062011719	114.0451965332032	-1095.223876953125	-309.9865112304688	132.5084686279297	-1003.839965820313	-408.2170410156251	104.4774551391602	-1037.931030273438	-198.015121459961	55.22919082641603	-1016.971557617188	-189.4272155761719	55.13415527343751	-1066.281005859375	-242.2010345458985	40.78416442871094	-1117.73291015625	-292.3547973632813	786.095886230469	-718.2576904296876	-251.3053436279297	734.6203613281251	-708.5984497070314	-217.721176147461	737.0059204101564	-712.1453247070314	-272.0479431152344	654.0716552734376	-717.9357910156251	-277.5141601562501	567.0268554687501	-707.9939575195314	-221.613021850586	552.3335571289064	-835.228210449219	-237.3312683105469	452.3949584960939	-701.3995971679689	-321.3617553710938	395.6034240722657	-665.7402343750001	-277.6519470214844	380.4828796386719	-672.2554931640626	-271.0620727539063	326.3099670410157	-691.4570312500001	-362.2925109863282	165.4603881835938	-657.9772949218751	-316.4353332519532	165.6891479492188	-742.0005493164064	-425.7559204101564	149.9691467285157	-718.1329345703126	-221.8389587402344	57.8611183166504	-714.3579711914064	-220.3322753906251	63.14078521728517	-667.3103637695314	-275.6215515136719	62.06796264648439	-622.0227050781251	
1281	6.4	-156.7107086181641	1788.712646484375	-965.1677246093752	-308.4513854980469	1750.105712890625	-1061.995971679688	-348.7232360839844	1752.092407226563	-927.1173095703127	-376.7198181152344	1573.22802734375	-978.649597167969	-399.9995422363282	1242.797973632813	-973.7207641601565	-231.4886322021485	1520.315673828125	-977.6887207031252	-294.9179382324219	1559.005493164063	-1140.798828125	-209.4103546142579	1373.022216796875	-1271.052856445313	-163.0849761962891	1387.111572265625	-1262.000610351563	-154.0132141113282	1333.999389648438	-1287.568359375	-99.3298263549805	1308.2373046875	-1287.396728515625	-126.3457870483399	1250.736206054688	-1237.038208007813	136.609603881836	1262.988403320313	-1166.124145507813	146.6526336669922	1211.963623046875	-1223.929443359375	229.1208648681641	1253.448364257813	-1174.714233398438	-299.0610961914063	1564.808227539063	-820.827575683594	-230.8818969726563	1391.4140625	-664.6456298828126	-183.9131317138672	1402.97509765625	-664.4405517578126	-182.3969116210938	1349.300170898438	-635.7583007812501	-144.0511169433594	1324.170654296875	-623.5909423828126	-153.7009582519532	1269.401123046875	-681.5052490234376	128.3272247314453	1331.631103515625	-716.5264282226564	122.2517547607422	1284.952514648438	-651.4883422851564	207.8952331542969	1341.29345703125	-697.0614624023439	-209.2747802734376	1063.945922851563	-1076.664306640625	-223.9266510009766	1085.90478515625	-824.0957641601565	-403.0079345703126	1154.882202148438	-967.5693359375002	-406.5935668945314	1121.510620117188	-993.6346435546877	-410.2759399414064	1123.901611328125	-937.047790527344	-301.1083374023438	823.7666015625002	-1154.429443359375	-272.3873291015626	743.5033569335939	-1149.630126953125	-225.2225799560547	745.6636352539064	-1141.298217773438	-303.5829772949219	692.4808959960939	-1133.108032226563	-307.8352661132813	538.7763061523439	-1111.011352539063	-287.2131042480469	534.3158569335939	-972.7382812500002	-265.9495849609376	376.7731018066407	-1055.391235351563	-310.9134216308594	329.0031738281251	-1114.948364257813	-273.7150573730469	327.7799072265626	-1088.0693359375	-280.8692626953126	250.4193115234376	-1053.908569335938	-339.5218505859376	114.0596313476563	-1095.173461914063	-309.9853210449219	132.4413757324219	-1003.765930175781	-408.3619384765626	104.6259078979492	-1037.888061523438	-197.9793395996094	55.1862144470215	-1016.940185546875	-189.4178466796875	55.1451988220215	-1066.260375976563	-242.1863403320313	40.8113136291504	-1117.722290039063	-293.6607666015626	785.5507812500002	-717.5565185546876	-252.9848175048829	733.8336181640626	-707.8864746093751	-219.4325714111329	736.0267944335939	-711.5077514648439	-273.8678588867188	653.3340454101564	-717.6250610351564	-279.4463806152344	566.2565917968751	-708.0227050781251	-223.4255523681641	551.5346679687501	-834.9614257812502	-239.650131225586	451.4774169921876	-701.6193237304689	-323.6313171386719	394.6928710937501	-666.0487670898439	-279.9494628906251	379.3489074707032	-672.5056762695314	-273.0910339355469	325.3070678710938	-691.6690063476564	-364.0391845703126	164.0027770996094	-658.6084594726564	-317.7747802734376	164.6496734619141	-742.5524291992189	-426.9922485351564	147.9113006591797	-719.0144042968751	-222.123031616211	57.71409988403322	-714.4496459960939	-221.3142700195313	63.0323944091797	-667.1881713867189	-276.1455383300782	61.72758865356447	-622.0565185546876	
1282	6.405	-155.7333374023438	1788.191162109375	-963.8654785156252	-307.3294982910157	1749.88720703125	-1060.431518554688	-347.8121032714844	1752.201171875	-925.5976562500002	-376.0515441894532	1573.199096679688	-976.9792480468752	-399.476531982422	1242.749633789063	-971.812438964844	-230.6251678466797	1519.95849609375	-976.0725708007815	-294.1201171875001	1558.19580078125	-1139.268676757813	-211.1549530029297	1370.857055664063	-1269.531005859375	-164.5821380615235	1384.316284179688	-1260.687255859375	-156.2490692138672	1331.177612304688	-1285.990356445313	-101.8020477294922	1304.653564453125	-1286.016845703125	-129.6228332519532	1247.480346679688	-1235.789794921875	133.4580383300782	1255.726806640625	-1164.823120117188	141.6220703125	1204.547119140625	-1222.364868164063	225.4996032714844	1244.373046875	-1173.279052734375	-298.2402038574219	1564.626220703125	-818.836120605469	-232.2669067382813	1389.789672851563	-662.6781005859376	-185.1912841796875	1400.83154296875	-662.4140014648439	-184.2118072509766	1347.019653320313	-633.6954345703126	-146.2354888916016	1321.431396484375	-621.6912841796876	-156.3888702392578	1266.791015625	-679.9035034179689	125.6918716430664	1325.81591796875	-714.8494873046876	119.4662857055664	1278.96435546875	-649.7679443359376	205.6617126464844	1333.934936523438	-695.3162841796876	-208.9040832519532	1064.229858398438	-1075.17236328125	-223.3542480468751	1085.275634765625	-822.678405761719	-402.0541992187501	1154.686767578125	-965.7717895507815	-405.8734436035157	1121.5380859375	-991.8616333007815	-409.6614685058595	1123.83056640625	-935.353698730469	-300.8446350097657	823.917663574219	-1153.287841796875	-272.1471862792969	743.5410766601564	-1148.633422851563	-224.9779815673829	745.7259521484376	-1140.566772460938	-303.3545837402344	692.5582275390626	-1132.166381835938	-307.8360595703126	538.7678833007814	-1110.097900390625	-287.4086608886719	534.1008911132814	-972.1633911132815	-266.1078796386719	376.7242431640626	-1054.912353515625	-310.9841613769532	329.1701354980469	-1114.502075195313	-274.0287170410157	327.7210388183594	-1087.992919921875	-281.3260192871094	250.4064941406251	-1053.685913085938	-339.5371704101563	114.0965423583985	-1095.156005859375	-309.9311523437501	132.4097595214844	-1003.686767578125	-408.4426574707032	104.7073516845703	-1037.821411132813	-198.0048217773438	55.2404251098633	-1016.914916992188	-189.4221343994141	55.14180755615236	-1066.243896484375	-242.1871948242188	40.80965805053712	-1117.669555664063	-294.6137084960938	784.8029785156252	-716.6626586914064	-254.4485168457032	732.9401245117189	-707.1574096679689	-220.6517333984376	734.9251098632814	-710.7583618164064	-275.9105529785157	652.6057128906251	-717.1655883789064	-281.5710754394532	565.5517578125001	-707.9052734375001	-225.3138122558594	550.9241943359376	-834.888610839844	-241.9161529541016	450.4963989257814	-701.9136352539064	-325.8013000488282	393.4072875976564	-666.2678222656251	-282.1973571777344	378.3766479492188	-672.8317260742189	-274.9523925781251	324.4505615234376	-692.0427246093751	-365.2688293457032	162.8813629150391	-659.3485107421876	-318.7721557617188	163.3488464355469	-743.0963745117189	-428.0809936523439	145.9985961914063	-719.6653442382814	-222.4229431152344	57.46804809570314	-714.5850219726564	-221.8524627685547	62.86891555786134	-667.3821411132814	-276.7449340820313	61.526424407959	-622.1307983398439	
